<?xml version="1.0" encoding="UTF-8"?>
<svg width="192px" height="192px" viewBox="0 0 192 192" version="1.1" xmlns="http://www.w3.org/2000/svg" xmlns:xlink="http://www.w3.org/1999/xlink">
    <!-- Generator: Sketch 59.1 (86144) - https://sketch.com -->
    <title>Artboard</title>
    <desc>Created with Sketch.</desc>
    <defs>
        <linearGradient x1="0%" y1="49.8246315%" x2="100%" y2="49.8246315%" id="linearGradient-1">
            <stop stop-color="#FFFFFF" offset="0%"></stop>
            <stop stop-color="#F7F7F7" offset="100%"></stop>
        </linearGradient>
        <linearGradient x1="0.00771485882%" y1="50%" x2="100%" y2="50%" id="linearGradient-2">
            <stop stop-color="#FFCF5C" offset="0%"></stop>
            <stop stop-color="#F2C05A" offset="100%"></stop>
        </linearGradient>
    </defs>
    <g id="Artboard" stroke="none" stroke-width="1" fill="none" fill-rule="evenodd">
        <path d="M46.7666224,16 L145.233378,16 C155.931602,16 159.811037,17.1139073 163.722148,19.2055924 C167.63326,21.2972776 170.702722,24.3667404 172.794408,28.2778516 C174.886093,32.1889627 176,36.0683975 176,46.7666224 L176,145.233378 C176,155.931602 174.886093,159.811037 172.794408,163.722148 C170.702722,167.63326 167.63326,170.702722 163.722148,172.794408 C159.811037,174.886093 155.931602,176 145.233378,176 L46.7666224,176 C36.0683975,176 32.1889627,174.886093 28.2778516,172.794408 C24.3667404,170.702722 21.2972776,167.63326 19.2055924,163.722148 C17.1139073,159.811037 16,155.931602 16,145.233378 L16,46.7666224 C16,36.0683975 17.1139073,32.1889627 19.2055924,28.2778516 C21.2972776,24.3667404 24.3667404,21.2972776 28.2778516,19.2055924 C32.1889627,17.1139073 36.0683975,16 46.7666224,16 Z" id="App-Icon" fill="#6979F8" fill-rule="nonzero"></path>
        <g id="Logo/Symbol-on-Dark" transform="translate(56.000000, 56.000000)">
            <g id="Group" transform="translate(8.625000, 0.000000)">
                <path d="M31.378882,78.8968944 C25.8807453,78.8968944 18.3254658,72.2708075 11.6645963,61.6074534 C5.1826087,51.2298137 0.99378882,39.3639752 0.99378882,31.378882 C1.14456774,14.7041714 14.704732,1.26606887 31.3801242,1.26606887 C48.0555165,1.26606887 61.6156807,14.7041714 61.7664596,31.378882 C61.7664596,39.3639752 57.5776398,51.2298137 51.0832298,61.6074534 C44.4347826,72.2708075 36.8795031,78.8968944 31.378882,78.8968944 Z" id="Path" fill="url(#linearGradient-1)"></path>
                <circle id="Oval" fill="url(#linearGradient-2)" cx="31.378882" cy="31.8409938" r="16.1018634"></circle>
                <path d="M30.7652174,18.7701863 C24.8108061,18.1847993 19.3772901,22.1947663 18.1813665,28.0571429 C17.9925466,29.0037267 19.4459627,29.3937888 19.6372671,28.4397516 C20.6558529,23.2362983 25.4958101,19.6844028 30.7652174,20.2732919 C31.7267081,20.3726708 31.7192547,18.8819876 30.7652174,18.7701863 Z" id="Path" fill="#FBFBFB"></path>
            </g>
        </g>
    </g>
</svg>