<svg width="192" height="192" xmlns="http://www.w3.org/2000/svg"><defs><linearGradient x1="0%" y1="49.825%" x2="100%" y2="49.825%" id="a"><stop stop-color="#FFF" offset="0%"/><stop stop-color="#F7F7F7" offset="100%"/></linearGradient><linearGradient x1=".008%" y1="50%" x2="100%" y2="50%" id="b"><stop stop-color="#FFCF5C" offset="0%"/><stop stop-color="#F2C05A" offset="100%"/></linearGradient></defs><g fill="none" fill-rule="evenodd"><path d="M46.767 16h98.466c10.699 0 14.578 1.114 18.49 3.206 3.91 2.091 6.98 5.16 9.071 9.072 2.092 3.911 3.206 7.79 3.206 18.489v98.466c0 10.699-1.114 14.578-3.206 18.49-2.091 3.91-5.16 6.98-9.072 9.071-3.911 2.092-7.79 3.206-18.489 3.206H46.767c-10.699 0-14.578-1.114-18.49-3.206-3.91-2.091-6.98-5.16-9.071-9.072-2.092-3.911-3.206-7.79-3.206-18.489V46.767c0-10.699 1.114-14.578 3.206-18.49 2.091-3.91 5.16-6.98 9.072-9.071C32.189 17.114 36.068 16 46.767 16z" fill="#6979F8" fill-rule="nonzero"/><g transform="translate(64.625 56)"><path d="M31.379 78.897c-5.498 0-13.054-6.626-19.714-17.29C5.183 51.23.994 39.364.994 31.38c.15-16.675 13.71-30.113 30.386-30.113S61.616 14.704 61.766 31.38c0 7.985-4.188 19.85-10.683 30.228-6.648 10.664-14.203 17.29-19.704 17.29z" fill="url(#a)"/><circle fill="url(#b)" cx="31.379" cy="31.841" r="16.102"/><path d="M30.765 18.77a11.677 11.677 0 00-12.584 9.287c-.188.947 1.265 1.337 1.456.383a10.186 10.186 0 0111.128-8.167c.962.1.954-1.391 0-1.503z" fill="#FBFBFB"/></g></g></svg>